<svg xmlns="http://www.w3.org/2000/svg" viewBox="0 0 512 354">
  <defs>
    <style>
      .cls-2{fill:#ee730d}.cls-3{fill:#ffa714}.cls-4{fill:#e84130}
    </style>
  </defs>
  <path d="M314.41 222.46H166.95l73.73 73.73z" class="cls-4"/>
  <path d="M501.83 222.46H341.74L240.68 323.52l-100.5-100.5c-9.73 1.62-20.92 6.96-27 13.31L10.65 343.29c-7.31 7.62-4.58 13.86 6.07 13.86h356.02c10.64 0 25.33-6.24 32.64-13.86l102.53-106.97c7.31-7.62 4.58-13.86-6.07-13.86Z" class="cls-4"/>
  <path d="M346.6 116.26h-55.26l-9.49 9.49c4.39 7.26 6.97 15.74 6.97 24.85 0 26.59-21.55 48.14-48.14 48.14s-48.14-21.55-48.14-48.14c0-13.45 5.53-25.61 14.43-34.34h-61.16c-4.16 0-8.93.97-13.64 2.59l-34.42 34.42 97.69 97.7h90.46l97.69-97.7-37-37ZM80.93 163.77 10.65 237.1c-7.31 7.62-4.58 13.86 6.07 13.86h151.41l-87.19-87.19Z" class="cls-2"/>
  <path d="M501.83 116.26h-127.9l37 37-97.7 97.7h59.5c10.64 0 25.33-6.24 32.64-13.86L507.9 130.13c7.31-7.62 4.58-13.86-6.07-13.86Z" class="cls-2"/>
  <path d="M501.83 10.56H240.46l-134.7 134.7h87.09c2.66-24.07 23.05-42.8 47.83-42.8 10.48 0 20.15 3.39 28.06 9.08l50.23-50.23 77.04 77.03c3.65-2.05 6.93-4.4 9.37-6.94L507.91 24.43c7.31-7.62 4.58-13.86-6.07-13.86ZM213.13 10.56h-67.32c-10.65 0-25.33 6.24-32.64 13.86L10.65 131.4c-7.31 7.62-4.58 13.86 6.07 13.86h61.72z" class="cls-3"/>
  <path d="m375.42 145.08-56.44-56.44-37.12 37.12c3.52 5.81 5.79 12.43 6.59 19.51h84.29c.86 0 1.78-.1 2.68-.18Z" class="cls-3"/>
</svg>
