<svg xmlns="http://www.w3.org/2000/svg" id="_レイヤー_1" data-name="レイヤー 1" viewBox="0 0 512 69.14">
  <defs>
    <style>
      .cls-1{fill:#ff6d00}.cls-2{fill:#ee730d}.cls-3{fill:#ffa714}.cls-4{fill:#e84130}.cls-5{fill:#343741}
    </style>
  </defs>
  <path d="M140.17 62.36c-2.53-2.5-3.8-5.85-3.8-10.03V20.78c0-4.18 1.27-7.53 3.8-10.04 2.53-2.5 5.92-3.76 10.16-3.76s7.64 1.27 10.2 3.8q3.84 3.795 3.84 10.08v3.55c0 .55-.28.83-.83.83h-4.21c-.55 0-.82-.27-.82-.83v-3.72c0-2.59-.74-4.67-2.23-6.24s-3.47-2.35-5.95-2.35-4.39.8-5.9 2.4c-1.52 1.6-2.27 3.66-2.27 6.19v31.72c0 2.53.76 4.6 2.27 6.19 1.51 1.6 3.48 2.4 5.9 2.4s4.46-.78 5.95-2.35 2.23-3.65 2.23-6.24V41.84q0-.33-.33-.33h-7.1c-.55 0-.82-.27-.82-.83v-3.47c0-.55.27-.83.82-.83h12.47c.55 0 .83.28.83.83v15.11c0 4.18-1.28 7.53-3.84 10.03-2.56 2.51-5.96 3.76-10.2 3.76s-7.63-1.25-10.16-3.76ZM212.03 46.79H193.2q-.33 0-.33.33v6.03c0 2.31.65 4.2 1.94 5.66S197.8 61 199.89 61c1.76 0 3.26-.54 4.5-1.61s2.05-2.46 2.44-4.17c.16-.5.47-.74.91-.74l4.13.17c.22 0 .41.08.58.25.16.17.22.39.16.66-.44 3.25-1.77 5.82-4.01 7.72-2.23 1.9-5.13 2.85-8.71 2.85-3.91 0-7.03-1.16-9.37-3.47s-3.51-5.37-3.51-9.17V35.65c0-3.74 1.17-6.79 3.51-9.13s5.46-3.51 9.37-3.51 7.12 1.17 9.46 3.51 3.51 5.38 3.51 9.13v10.32c0 .55-.28.83-.82.83Zm-17.22-16.48c-1.3 1.46-1.94 3.37-1.94 5.74v5.53q0 .33.33.33h13.54q.33 0 .33-.33v-5.53c0-2.37-.66-4.28-1.98-5.74s-3.06-2.19-5.2-2.19-3.79.73-5.08 2.19M240.65 62.65c-2.34-2.31-3.51-5.37-3.51-9.17V35.72c0-3.74 1.18-6.8 3.55-9.17S246.2 23 250.11 23s7.13 1.18 9.5 3.55 3.55 5.42 3.55 9.17v17.76c0 3.8-1.18 6.85-3.55 9.17-2.37 2.31-5.53 3.47-9.5 3.47s-7.12-1.16-9.46-3.47m14.62-3.88c1.35-1.43 2.02-3.33 2.02-5.7V36.06c0-2.37-.67-4.28-2.02-5.74q-2.025-2.19-5.16-2.19c-3.135 0-3.8.73-5.12 2.19s-1.98 3.37-1.98 5.74v17.01q0 3.555 1.98 5.7c1.32 1.43 3.03 2.15 5.12 2.15s3.81-.71 5.16-2.15M311.51 26.55c1.84 2.31 2.77 5.53 2.77 9.66v28.41c0 .55-.28.83-.83.83h-4.21c-.55 0-.82-.27-.82-.83V36.7c0-2.7-.59-4.79-1.78-6.28-1.18-1.49-2.82-2.23-4.91-2.23q-3.3 0-5.16 2.4c-1.24 1.6-1.86 3.77-1.86 6.52v27.5c0 .55-.28.83-.83.83h-4.21c-.55 0-.83-.27-.83-.83V24.49c0-.55.27-.83.83-.83h4.21c.55 0 .83.28.83.83v2.64c0 .11.05.19.16.25s.19 0 .25-.17a9.27 9.27 0 0 1 3.76-3.1c1.51-.69 3.12-1.03 4.83-1.03 3.36 0 5.96 1.16 7.8 3.47M338.93 14.74c-.85-.88-1.28-1.98-1.28-3.3s.43-2.49 1.28-3.35 1.97-1.28 3.35-1.28 2.41.43 3.26 1.28 1.28 1.97 1.28 3.35-.43 2.42-1.28 3.3-1.94 1.32-3.26 1.32-2.49-.44-3.35-1.32m.45 49.89V24.49c0-.55.27-.83.83-.83h4.21c.55 0 .83.28.83.83v40.14c0 .55-.28.83-.83.83h-4.21c-.55 0-.83-.27-.83-.83M373.37 62.65c-2.34-2.31-3.51-5.37-3.51-9.17V35.64c0-3.74 1.18-6.79 3.55-9.13q3.555-3.51 9.33-3.51c2.59 0 4.87.52 6.85 1.57s3.51 2.44 4.58 4.17 1.61 3.65 1.61 5.74v.83c0 .55-.28.83-.83.83l-4.21.17c-.55 0-.83-.27-.83-.83v-.58c0-1.82-.67-3.4-2.02-4.75s-3.07-2.02-5.16-2.02-3.79.73-5.08 2.19c-1.3 1.46-1.94 3.37-1.94 5.74v17.01c0 2.37.65 4.28 1.94 5.74s2.99 2.19 5.08 2.19 3.81-.67 5.16-2.02 2.02-2.93 2.02-4.75v-.58c0-.55.27-.83.83-.83l4.21.08c.55 0 .83.28.83.83v.91c0 3.3-1.2 6.04-3.59 8.22-2.4 2.18-5.55 3.26-9.46 3.26s-7.03-1.16-9.37-3.47Z" class="cls-5"/>
  <path d="M427.18 64.63V8.47c0-.55.27-.83.83-.83h13.54c4.57 0 8.2 1.4 10.9 4.21q4.05 4.215 4.05 11.4v26.59q0 7.185-4.05 11.4c-2.7 2.81-6.33 4.21-10.9 4.21h-13.54c-.55 0-.83-.27-.83-.83Zm8.26-6.03 6.03-.08c2.09 0 3.77-.81 5.04-2.44 1.27-1.62 1.93-3.84 1.98-6.65V23.66c0-2.81-.63-5.04-1.9-6.69s-2.97-2.48-5.12-2.48h-6.03q-.33 0-.33.33v43.44q0 .33.33.33ZM507.75 61.33c-2.84 2.75-6.57 4.13-11.19 4.13h-13.79c-.55 0-.83-.27-.83-.83V8.47c0-.55.27-.83.83-.83h12.64c5.01 0 8.93 1.31 11.77 3.92 2.83 2.62 4.25 6.43 4.25 11.44 0 5.95-2.12 10.05-6.36 12.31-.28.17-.3.3-.08.41 2.2 1.32 3.92 3.17 5.16 5.53 1.24 2.37 1.86 5.18 1.86 8.42 0 5.01-1.42 8.89-4.25 11.65Zm-17.88-46.5v17.51q0 .33.33.33h5.29c2.59 0 4.6-.78 6.03-2.35s2.15-3.76 2.15-6.57-.72-5.19-2.15-6.81-3.44-2.44-6.03-2.44h-5.29q-.33 0-.33.33m12.01 41.13c1.46-1.71 2.19-4.13 2.19-7.27s-.72-5.68-2.15-7.47-3.42-2.68-5.95-2.68h-5.78q-.33 0-.33.33V58.2q0 .33.33.33h5.7c2.53 0 4.53-.85 5.99-2.56Z" class="cls-1"/>
  <path d="M61.41 42.27H32l14.7 14.71z" class="cls-4"/>
  <path d="M98.8 42.27H66.87L46.71 62.43 26.66 42.38c-1.94.32-4.17 1.39-5.39 2.65L.82 66.37c-1.46 1.52-.91 2.77 1.21 2.77h71.02c2.12 0 5.05-1.24 6.51-2.77l20.45-21.34c1.46-1.52.91-2.77-1.21-2.77Z" class="cls-4"/>
  <path d="M67.83 21.08H56.81l-1.89 1.89a9.5 9.5 0 0 1 1.39 4.96c0 5.3-4.3 9.6-9.6 9.6s-9.6-4.3-9.6-9.6c0-2.68 1.1-5.11 2.88-6.85h-12.2c-.83 0-1.78.19-2.72.52l-6.87 6.87 19.49 19.49h18.04l19.49-19.49-7.38-7.38ZM14.84 30.56.82 45.19c-1.46 1.52-.91 2.77 1.21 2.77h30.2z" class="cls-2"/>
  <path d="M98.8 21.08H73.29l7.38 7.38-19.49 19.49h11.87c2.12 0 5.05-1.24 6.51-2.77l20.45-21.34c1.46-1.52.91-2.77-1.21-2.77Z" class="cls-2"/>
  <path d="M98.8 0H46.66L19.79 26.87h17.37c.53-4.8 4.6-8.54 9.54-8.54 2.09 0 4.02.68 5.6 1.81l10.02-10.02 15.37 15.37c.73-.41 1.38-.88 1.87-1.38l20.45-21.34c1.46-1.52.91-2.77-1.21-2.77M41.21 0H27.78c-2.12 0-5.05 1.24-6.51 2.77L.82 24.1c-1.46 1.52-.91 2.77 1.21 2.77h12.31z" class="cls-3"/>
  <path d="M73.58 26.83 62.32 15.57l-7.4 7.4c.7 1.16 1.16 2.48 1.31 3.89h16.81c.17 0 .35-.02.54-.04Z" class="cls-3"/>
</svg>
