<svg xmlns="http://www.w3.org/2000/svg" id="_レイヤー_1" data-name="レイヤー 1" viewBox="0 0 512 512">
  <defs>
    <style>
      .cls-1{fill:#ff6d00}.cls-2{fill:#ee730d}.cls-3{fill:#ffa714}.cls-4{fill:#e84130}.cls-5{fill:#343741}
    </style>
  </defs>
  <path d="M5.04 496.46C1.68 493.14 0 488.7 0 483.16v-41.83c0-5.55 1.68-9.98 5.04-13.3q5.04-4.98 13.47-4.98c8.43 0 10.13 1.68 13.52 5.04 3.4 3.36 5.09 7.81 5.09 13.36v4.71c0 .73-.37 1.09-1.09 1.09h-5.58c-.73 0-1.1-.36-1.1-1.09v-4.93c0-3.43-.99-6.19-2.96-8.27s-4.6-3.12-7.88-3.12-5.82 1.06-7.83 3.17c-2.01 2.12-3.01 4.86-3.01 8.21v42.04c0 3.36 1 6.1 3.01 8.21q3.015 3.18 7.83 3.18c4.815 0 5.91-1.04 7.88-3.12s2.96-4.83 2.96-8.27v-14.02c0-.29-.15-.44-.44-.44h-9.42c-.73 0-1.09-.36-1.09-1.09v-4.6c0-.73.36-1.1 1.09-1.1h16.53c.73 0 1.09.37 1.09 1.1v20.04c0 5.55-1.7 9.98-5.09 13.3s-7.9 4.98-13.52 4.98-10.11-1.66-13.47-4.98ZM102.49 475.82H77.53c-.29 0-.44.15-.44.44v7.99c0 3.07.86 5.57 2.57 7.5s3.96 2.9 6.73 2.9c2.34 0 4.33-.71 5.97-2.14s2.72-3.27 3.23-5.53q.33-.99 1.2-.99l5.47.22c.29 0 .55.11.77.33s.29.51.22.88c-.58 4.31-2.35 7.72-5.31 10.24q-4.44 3.78-11.55 3.78c-5.18 0-9.33-1.53-12.43-4.6q-4.65-4.605-4.65-12.15v-23.65c0-4.96 1.55-9 4.65-12.1s7.24-4.65 12.43-4.65 9.43 1.55 12.54 4.65c3.1 3.1 4.65 7.14 4.65 12.1v13.69c0 .73-.37 1.09-1.09 1.09m-22.83-21.85c-1.72 1.93-2.57 4.47-2.57 7.61v7.34c0 .29.15.44.44.44h17.96c.29 0 .44-.15.44-.44v-7.34c0-3.14-.88-5.68-2.63-7.61s-4.05-2.9-6.9-2.9-5.02.97-6.73 2.9ZM140.42 496.84q-4.65-4.605-4.65-12.15v-23.54c0-4.96 1.57-9.02 4.71-12.15q4.71-4.71 12.48-4.71c7.77 0 9.45 1.57 12.59 4.71q4.71 4.71 4.71 12.15v23.54q0 7.56-4.71 12.15c-3.14 3.07-7.34 4.6-12.59 4.6s-9.43-1.53-12.54-4.6m19.39-5.15c1.79-1.9 2.68-4.42 2.68-7.55v-22.56c0-3.14-.89-5.68-2.68-7.61s-4.07-2.9-6.84-2.9-5.04.97-6.79 2.9-2.63 4.47-2.63 7.61v22.56c0 3.14.88 5.66 2.63 7.55 1.75 1.9 4.01 2.85 6.79 2.85s5.05-.95 6.84-2.85M234.37 448.99c2.44 3.07 3.67 7.34 3.67 12.81v37.67c0 .73-.37 1.09-1.1 1.09h-5.58c-.73 0-1.09-.36-1.09-1.09v-37.01c0-3.58-.79-6.35-2.35-8.32-1.57-1.97-3.74-2.96-6.51-2.96q-4.38 0-6.84 3.18c-2.46 3.18-2.46 5-2.46 8.65v36.46c0 .73-.37 1.09-1.09 1.09h-5.58c-.73 0-1.1-.36-1.1-1.09v-53.21c0-.73.36-1.09 1.1-1.09h5.58c.73 0 1.09.37 1.09 1.09v3.5c0 .15.07.26.22.33.14.07.26 0 .33-.22q1.965-2.73 4.98-4.11c2.01-.91 4.14-1.37 6.41-1.37 4.45 0 7.9 1.53 10.35 4.6ZM272.91 433.33c-1.13-1.17-1.7-2.63-1.7-4.38s.56-3.3 1.7-4.43c1.13-1.13 2.61-1.7 4.43-1.7s3.19.57 4.33 1.7c1.13 1.13 1.7 2.61 1.7 4.43s-.57 3.21-1.7 4.38-2.57 1.75-4.33 1.75-3.3-.58-4.43-1.75m.6 66.14v-53.21c0-.73.36-1.09 1.09-1.09h5.59c.73 0 1.09.37 1.09 1.09v53.21c0 .73-.37 1.09-1.09 1.09h-5.59c-.73 0-1.09-.36-1.09-1.09M320.76 496.84q-4.65-4.605-4.65-12.15v-23.65c0-4.96 1.57-9 4.71-12.1s7.26-4.65 12.37-4.65c3.43 0 6.46.69 9.09 2.08s4.65 3.23 6.08 5.53c1.42 2.3 2.14 4.84 2.14 7.61v1.1c0 .73-.37 1.09-1.1 1.09l-5.58.22c-.73 0-1.09-.36-1.09-1.09v-.77c0-2.41-.89-4.51-2.68-6.3s-4.07-2.68-6.84-2.68-5.02.97-6.73 2.9c-1.72 1.93-2.57 4.47-2.57 7.61v22.56c0 3.14.86 5.68 2.57 7.61s3.96 2.9 6.73 2.9 5.05-.89 6.84-2.68 2.68-3.89 2.68-6.3v-.77c0-.73.36-1.09 1.09-1.09l5.58.11c.73 0 1.1.37 1.1 1.09v1.2c0 4.38-1.59 8.01-4.76 10.89-3.18 2.88-7.35 4.33-12.54 4.33s-9.33-1.53-12.43-4.6Z" class="cls-5"/>
  <path d="M387.71 499.47v-74.46c0-.73.36-1.09 1.09-1.09h17.96c6.06 0 10.88 1.86 14.45 5.58 3.58 3.72 5.37 8.76 5.37 15.11v35.26c0 6.35-1.79 11.39-5.37 15.11s-8.4 5.58-14.45 5.58H388.8c-.73 0-1.09-.36-1.09-1.09m10.95-8 7.99-.11c2.77 0 5-1.08 6.68-3.23s2.55-5.09 2.63-8.81v-34.16c0-3.72-.84-6.68-2.52-8.87s-3.94-3.29-6.79-3.29h-7.99c-.29 0-.44.15-.44.44v57.59c0 .29.14.44.44.44M494.52 495.09c-3.76 3.65-8.7 5.48-14.84 5.48h-18.29c-.73 0-1.09-.36-1.09-1.09v-74.46c0-.73.36-1.09 1.09-1.09h16.75c6.64 0 11.84 1.73 15.6 5.2s5.64 8.52 5.64 15.17c0 7.88-2.81 13.32-8.43 16.31-.37.22-.4.4-.11.55 2.92 1.75 5.2 4.2 6.84 7.34s2.46 6.86 2.46 11.17c0 6.64-1.88 11.79-5.64 15.44Zm-23.7-61.65v23.21c0 .29.14.44.44.44h7.01c3.43 0 6.09-1.04 7.99-3.12q2.85-3.12 2.85-8.7c0-5.58-.95-6.88-2.85-9.03s-4.56-3.23-7.99-3.23h-7.01c-.29 0-.44.15-.44.44Zm15.93 54.53c1.93-2.26 2.9-5.48 2.9-9.64s-.95-7.54-2.85-9.91-4.53-3.56-7.88-3.56h-7.67c-.29 0-.44.15-.44.44v25.62c0 .29.14.44.44.44h7.55c3.36 0 6-1.13 7.94-3.39Z" class="cls-1"/>
  <path d="M314.41 222.46H166.95l73.73 73.73z" class="cls-4"/>
  <path d="M501.83 222.46H341.74L240.68 323.52l-100.5-100.5c-9.73 1.62-20.92 6.96-27 13.31L10.65 343.29c-7.31 7.62-4.58 13.86 6.07 13.86h356.02c10.64 0 25.33-6.24 32.64-13.86l102.53-106.97c7.31-7.62 4.58-13.86-6.07-13.86Z" class="cls-4"/>
  <path d="M346.6 116.26h-55.26l-9.49 9.49c4.39 7.26 6.97 15.74 6.97 24.85 0 26.59-21.55 48.14-48.14 48.14s-48.14-21.55-48.14-48.14c0-13.45 5.53-25.61 14.43-34.34h-61.16c-4.16 0-8.93.97-13.64 2.59l-34.42 34.42 97.69 97.7h90.46l97.69-97.7-37-37ZM80.93 163.77 10.65 237.1c-7.31 7.62-4.58 13.86 6.07 13.86h151.41l-87.19-87.19Z" class="cls-2"/>
  <path d="M501.83 116.26h-127.9l37 37-97.7 97.7h59.5c10.64 0 25.33-6.24 32.64-13.86L507.9 130.13c7.31-7.62 4.58-13.86-6.07-13.86Z" class="cls-2"/>
  <path d="M501.83 10.56H240.46l-134.7 134.7h87.09c2.66-24.07 23.05-42.8 47.83-42.8 10.48 0 20.15 3.39 28.06 9.08l50.23-50.23 77.04 77.03c3.65-2.05 6.93-4.4 9.37-6.94L507.91 24.43c7.31-7.62 4.58-13.86-6.07-13.86ZM213.13 10.56h-67.32c-10.65 0-25.33 6.24-32.64 13.86L10.65 131.4c-7.31 7.62-4.58 13.86 6.07 13.86h61.72z" class="cls-3"/>
  <path d="m375.42 145.08-56.44-56.44-37.12 37.12c3.52 5.81 5.79 12.43 6.59 19.51h84.29c.86 0 1.78-.1 2.68-.18Z" class="cls-3"/>
</svg>
